<svg xmlns="http://www.w3.org/2000/svg" xmlns:xlink="http://www.w3.org/1999/xlink" viewBox="0 0 418.32 304.51"><defs><style>.cls-1{fill:none;}.cls-2{fill:#f15a29;}.cls-3{fill:#231f20;}.cls-4{clip-path:url(#clip-path);}.cls-5{clip-path:url(#clip-path-2);}</style><clipPath id="clip-path"><path class="cls-1" d="M145.41,251.71c-10.75-1.89-35.52-3.9-64.16,14.15-26.32,16.59-42.18,31.66-49.65,8.56C25.7,256.16,76,230.09,97.79,226.94c16.93-2.44,39.32-.61,46-.2C164.17,228,174.79,256.87,145.41,251.71Z"/></clipPath><clipPath id="clip-path-2"><path class="cls-1" d="M388.27,274c-5.45-2.94-31.65-8.78-40.27-11.13-15.41-4.2,1.57-25.06-4.18-54.81-1.58-15.21-4.56-32.95-4.5-52.38,7.91-4.17,17.27-10.54,28-19.39,4.39-3.61,14-2.34,20.08-6.63,21.52-15.07-10.09-16-22.77-14.57-4.89.55-13.23,3.7-21.92,8.17a134.7,134.7,0,0,1,9.86-29.09A46.4,46.4,0,0,0,356.06,84c3.93-8.95,1.86-25.79,1.86-35.89,0-7.82-6.52-5.58-13.82-.37A60.84,60.84,0,0,0,317,33.24c1.61-10.85-.06-19.59-8.59-16.15-12.47,5-24.49,13.18-36.12,21.55a51.05,51.05,0,0,0-4.64,3c-3,2.18-5.91,4.45-8.81,6.76l-.28.2s-.05.07-.09.1a299,299,0,0,0-37.34,35.81c-4.55-5.77-9-10.37-12.25-12.53-10.64-7-39.21-20.59-26.91,2.61,3.5,6.6,12.6,9.83,14.86,15,2.51,5.79,5,10.93,7.45,15.59a353.06,353.06,0,0,0-27.9,43.5c-23,25.34-46.15,63.79-45.19,85.79.8,18.26,26.67,28.08,13.71,42.24-6,6.59-33.24,6.86-36.28,12.26-8.38,14.87,3.86,16.33,14.48,15.25C154.9,301,171.62,289,215,287.49h0c26,3.15,55.2,1.61,79.93-7.56,30.23,0,52,2.75,81.07,9.7C386.44,292.11,403.3,282.13,388.27,274Z"/></clipPath></defs><title>Asset 14</title><g id="Layer_2" data-name="Layer 2"><g id="Layer_1-2" data-name="Layer 1"><path class="cls-2" d="M145.41,251.71c-10.75-1.89-35.52-3.9-64.16,14.15-26.32,16.59-42.18,31.66-49.65,8.56C25.7,256.16,76,230.09,97.79,226.94c16.93-2.44,39.32-.61,46-.2C164.17,228,174.79,256.87,145.41,251.71Z"/><path class="cls-2" d="M388.27,274c-5.45-2.94-31.65-8.78-40.27-11.13-15.41-4.2,1.57-25.06-4.18-54.81-1.58-15.21-4.56-32.95-4.5-52.38,7.91-4.17,17.27-10.54,28-19.39,4.39-3.61,14-2.34,20.08-6.63,21.52-15.07-10.09-16-22.77-14.57-4.89.55-13.23,3.7-21.92,8.17a134.7,134.7,0,0,1,9.86-29.09A46.4,46.4,0,0,0,356.06,84c3.93-8.95,1.86-25.79,1.86-35.89,0-7.82-6.52-5.58-13.82-.37A60.84,60.84,0,0,0,317,33.24c1.61-10.85-.06-19.59-8.59-16.15-12.47,5-24.49,13.18-36.12,21.55a51.05,51.05,0,0,0-4.64,3c-3,2.18-5.91,4.45-8.81,6.76l-.28.2s-.05.07-.09.1a299,299,0,0,0-37.34,35.81c-4.55-5.77-9-10.37-12.25-12.53-10.64-7-39.21-20.59-26.91,2.61,3.5,6.6,12.6,9.83,14.86,15,2.51,5.79,5,10.93,7.45,15.59a353.06,353.06,0,0,0-27.9,43.5c-23,25.34-46.15,63.79-45.19,85.79.8,18.26,26.67,28.08,13.71,42.24-6,6.59-33.24,6.86-36.28,12.26-8.38,14.87,3.86,16.33,14.48,15.25C154.9,301,171.62,289,215,287.49h0c26,3.15,55.2,1.61,79.93-7.56,30.23,0,52,2.75,81.07,9.7C386.44,292.11,403.3,282.13,388.27,274Z"/><path class="cls-3" d="M307,58.27c2.25,3.67-.81,8,1.95,6.52,1.38-.72,2.28-4.28,1-7.2-1.75-4-5-5.45-6.47-5.19C300,53,305.24,55.43,307,58.27Z"/><path class="cls-3" d="M320.83,66.12c-4.3.09-6.25,5-6.53,1.89-.14-1.55,2.37-4.24,5.51-4.74,4.31-.69,7.31,1.3,7.86,2.63C329,69.2,324.16,66,320.83,66.12Z"/><path class="cls-3" d="M306.25,79.26c.4,2.84,3.8,3.74,1.77,4.17-1,.22-3-1.23-3.58-3.27-.8-2.8.28-4.95,1.12-5.42C307.64,73.59,305.94,77.06,306.25,79.26Z"/><path class="cls-3" d="M300.26,74.08c-2.84-.4-3.74-3.8-4.17-1.77-.22,1,1.23,3,3.27,3.58,2.8.8,4.95-.28,5.42-1.12C305.94,72.69,302.46,74.39,300.26,74.08Z"/><path class="cls-3" d="M304.66,69.15c-1.76-1-3.38,4.64-.94,6.42s6.4-.88,6.63-2.28C310.55,72.05,307.33,70.66,304.66,69.15Z"/><g class="cls-4"><path class="cls-3" d="M62.52,243C58.22,237.57,8.26,189.78,1,199.77c-8.23,11.35,35.84,43.39,48.27,48.71C60.21,253.16,77.67,262.27,62.52,243Z"/><path class="cls-3" d="M82,231.71c-4.62-5.87-58.23-57.14-66-46.43-8.84,12.17,38.46,46.56,51.79,52.27C79.54,242.58,98.28,252.35,82,231.71Z"/><path class="cls-3" d="M106.9,224.37c-3.64-6.52-48.5-65.6-57.86-56.25C38.4,178.76,79.69,220.16,92,227.9,102.74,234.71,119.7,247.31,106.9,224.37Z"/></g><g class="cls-5"><path class="cls-3" d="M207.74,114.18c-6.23-4.12-73.21-36-77.24-23.38-4.57,14.33,51.13,32.14,65.58,33.38C208.79,125.27,229.65,128.67,207.74,114.18Z"/><path class="cls-3" d="M252,52.17c-3.66-3.52-44.59-32.54-48.94-24-4.95,9.69,30.22,27.68,39.79,30C251.26,60.11,264.85,64.54,252,52.17Z"/><path class="cls-3" d="M263.11,41.14C260.33,36.9,226.83-.46,220.7,6.89c-7,8.35,23.35,33.68,32.17,38C260.63,48.72,272.91,56,263.11,41.14Z"/><path class="cls-3" d="M278.85,35.21C276.07,31,242.57-6.39,236.44,1c-7,8.35,23.35,33.68,32.17,38C276.38,42.79,288.65,50.12,278.85,35.21Z"/><path class="cls-3" d="M359.52,79.79c5,.79,55.19,1.09,53.86-8.39-1.5-10.77-40.63-5.34-49.77-1.72C355.57,72.86,341.9,77,359.52,79.79Z"/><path class="cls-3" d="M353.51,93.68c4.71,1.88,53.58,13.27,54.39,3.74.92-10.84-38.44-14.2-48.16-12.7C351.19,86,336.93,87.08,353.51,93.68Z"/><path class="cls-3" d="M348.47,107.49c4.71,1.88,53.58,13.27,54.39,3.74.92-10.84-38.44-14.2-48.16-12.7C346.15,99.86,331.89,100.9,348.47,107.49Z"/><path class="cls-3" d="M186,140.45c-5.87-4.63-70-42-75-29.72-5.75,13.9,48.28,36.28,62.58,38.72C186.14,151.6,206.64,156.72,186,140.45Z"/><path class="cls-3" d="M171.26,164.75c-6.23-4.12-73.21-36-77.24-23.38-4.57,14.33,51.13,32.14,65.58,33.38C172.32,175.84,193.17,179.24,171.26,164.75Z"/><path class="cls-3" d="M339.26,217.91c7.47-.11,80.75-11.6,77-24.28-4.31-14.41-60.34,2.32-73,9.45C332.13,209.35,313,218.31,339.26,217.91Z"/><path class="cls-3" d="M341.22,192.93c7.47-.11,80.75-11.6,77-24.28-4.31-14.41-60.34,2.32-73,9.45C334.09,184.37,315,193.33,341.22,192.93Z"/><path class="cls-3" d="M339.9,172.64c7.47-.11,80.75-11.6,77-24.28-4.31-14.41-60.34,2.32-73,9.45C332.77,164.07,313.63,173,339.9,172.64Z"/><path class="cls-3" d="M334.58,45C337,43.12,357.42,22.73,352.3,21.4c-5.83-1.51-19,15.51-21,19.95C329.63,45.25,326.12,51.65,334.58,45Z"/><path class="cls-3" d="M326,41.25c1.54-2.18,12.68-24.84,7.09-25.3-6.35-.53-11.87,17.78-11.85,22.32C321.23,42.26,320.57,48.91,326,41.25Z"/></g></g></g></svg>
